<?xml version="1.0" encoding="iso-8859-1"?>
<!-- Generator: Adobe Illustrator 16.0.4, SVG Export Plug-In . SVG Version: 6.00 Build 0)  -->
<!DOCTYPE svg PUBLIC "-//W3C//DTD SVG 1.1//EN" "http://www.w3.org/Graphics/SVG/1.1/DTD/svg11.dtd">
<svg version="1.1" id="Capa_1" xmlns="http://www.w3.org/2000/svg" xmlns:xlink="http://www.w3.org/1999/xlink" x="0px" y="0px"
	 width="40.007px" height="40.007px" viewBox="0 0 40.007 40.007" style="enable-background:new 0 0 40.007 40.007;"
	 xml:space="preserve">
<g id="_x34_93._Back">
	<g>
		<path d="M37.324,10.003c-5.523-9.565-17.755-12.843-27.32-7.32C0.438,8.205-2.84,20.438,2.684,30.004
			c5.522,9.565,17.754,12.843,27.32,7.32C39.569,31.801,42.847,19.569,37.324,10.003z M28.004,33.859
			c-7.653,4.418-17.438,1.797-21.856-5.856c-4.419-7.652-1.797-17.438,5.856-21.856c7.652-4.418,17.438-1.796,21.856,5.857
			C38.278,19.656,35.656,29.441,28.004,33.859z M27.004,18.003h-8.343l2.242-2.242c0.78-0.781,0.78-2.048,0-2.828
			c-0.781-0.781-2.048-0.781-2.829,0l-5.656,5.656c-0.781,0.781-0.781,2.048,0,2.829l5.656,5.656c0.781,0.781,2.048,0.781,2.829,0
			c0.78-0.781,0.78-2.047,0-2.828l-2.243-2.242h8.344c1.104,0,2-0.896,2-2v-0.001C29.004,18.898,28.108,18.003,27.004,18.003z"/>
	</g>
</g>
<g>
</g>
<g>
</g>
<g>
</g>
<g>
</g>
<g>
</g>
<g>
</g>
<g>
</g>
<g>
</g>
<g>
</g>
<g>
</g>
<g>
</g>
<g>
</g>
<g>
</g>
<g>
</g>
<g>
</g>
</svg>
