<?xml version="1.0" encoding="iso-8859-1"?>
<!-- Generator: Adobe Illustrator 16.0.4, SVG Export Plug-In . SVG Version: 6.00 Build 0)  -->
<!DOCTYPE svg PUBLIC "-//W3C//DTD SVG 1.1//EN" "http://www.w3.org/Graphics/SVG/1.1/DTD/svg11.dtd">
<svg version="1.1" id="Capa_1" xmlns="http://www.w3.org/2000/svg" xmlns:xlink="http://www.w3.org/1999/xlink" x="0px" y="0px"
	 width="40.007px" height="40.007px" viewBox="0 0 40.007 40.007" style="enable-background:new 0 0 40.007 40.007;"
	 xml:space="preserve">
<g id="_x33_58._Pause">
	<g>
		<path d="M16.004,14.004c-1.104,0-2,0.895-2,2v7.999c0,1.104,0.896,2,2,2s2-0.896,2-2v-7.999
			C18.004,14.898,17.108,14.004,16.004,14.004z M37.324,10.004c-5.522-9.566-17.755-12.844-27.32-7.32
			C0.438,8.206-2.84,20.438,2.684,30.004c5.522,9.565,17.754,12.843,27.32,7.32C39.569,31.801,42.847,19.569,37.324,10.004z
			 M28.004,33.859c-7.652,4.419-17.438,1.797-21.856-5.856c-4.419-7.652-1.796-17.438,5.856-21.855
			c7.652-4.419,17.438-1.797,21.856,5.856C38.278,19.656,35.656,29.441,28.004,33.859z M24.004,14.004c-1.104,0-2,0.895-2,2v7.999
			c0,1.104,0.896,2.001,2,2.001s2-0.896,2-2.001v-7.999C26.004,14.898,25.108,14.004,24.004,14.004z"/>
	</g>
</g>
<g>
</g>
<g>
</g>
<g>
</g>
<g>
</g>
<g>
</g>
<g>
</g>
<g>
</g>
<g>
</g>
<g>
</g>
<g>
</g>
<g>
</g>
<g>
</g>
<g>
</g>
<g>
</g>
<g>
</g>
</svg>
