<?xml version="1.0" encoding="utf-8"?>
<!-- Generator: Adobe Illustrator 16.0.4, SVG Export Plug-In . SVG Version: 6.00 Build 0)  -->
<!DOCTYPE svg PUBLIC "-//W3C//DTD SVG 1.1//EN" "http://www.w3.org/Graphics/SVG/1.1/DTD/svg11.dtd">
<svg version="1.1" id="Capa_1" xmlns="http://www.w3.org/2000/svg" xmlns:xlink="http://www.w3.org/1999/xlink" x="0px" y="0px"
	 width="512px" height="512px" viewBox="0 0 512 512" enable-background="new 0 0 512 512" xml:space="preserve">
<path d="M320,73.294v67.979c18.103,7.902,34.75,19.204,49.137,33.59C399.358,205.083,416,245.263,416,288
	c0,42.736-16.643,82.917-46.863,113.137C338.917,431.357,298.738,448,256,448c-42.738,0-82.917-16.643-113.137-46.863
	C112.643,370.917,96,330.736,96,288c0-42.737,16.643-82.917,46.863-113.137c14.387-14.387,31.034-25.689,49.137-33.591V73.294
	C99.476,100.834,32,186.53,32,288c0,123.712,100.289,224,224,224c123.712,0,224-100.288,224-224
	C480,186.53,412.525,100.834,320,73.294z M224,0h64v256h-64V0z"/>
</svg>
