<?xml version="1.0" encoding="iso-8859-1"?>
<!-- Generator: Adobe Illustrator 16.0.4, SVG Export Plug-In . SVG Version: 6.00 Build 0)  -->
<!DOCTYPE svg PUBLIC "-//W3C//DTD SVG 1.1//EN" "http://www.w3.org/Graphics/SVG/1.1/DTD/svg11.dtd">
<svg version="1.1" id="Capa_1" xmlns="http://www.w3.org/2000/svg" xmlns:xlink="http://www.w3.org/1999/xlink" x="0px" y="0px"
	 width="40.007px" height="40.007px" viewBox="0 0 40.007 40.007" style="enable-background:new 0 0 40.007 40.007;"
	 xml:space="preserve">
<g id="_x34_94._Forward">
	<g>
		<path d="M27.585,18.585l-5.652-5.652c-0.781-0.781-2.048-0.781-2.829,0h0.001c-0.781,0.78-0.781,2.047,0,2.828l2.241,2.242h-8.342
			c-1.104,0-2,0.896-2,2v0.001c0,1.104,0.896,2,2,2h8.343l-2.242,2.242c-0.781,0.781-0.781,2.047,0,2.828
			c0.78,0.781,2.047,0.781,2.828,0l5.657-5.656c0.78-0.781,0.78-2.048,0-2.829C27.588,18.587,27.586,18.586,27.585,18.585z
			 M30.004,2.683c-9.566-5.522-21.798-2.245-27.32,7.32c-5.523,9.566-2.246,21.798,7.32,27.321c9.565,5.522,21.798,2.245,27.32-7.32
			C42.848,20.438,39.569,8.205,30.004,2.683z M33.86,28.003c-4.419,7.653-14.204,10.274-21.856,5.856S1.729,19.656,6.147,12.004
			c4.418-7.653,14.204-10.275,21.856-5.857C35.656,10.565,38.278,20.351,33.86,28.003z"/>
	</g>
</g>
<g>
</g>
<g>
</g>
<g>
</g>
<g>
</g>
<g>
</g>
<g>
</g>
<g>
</g>
<g>
</g>
<g>
</g>
<g>
</g>
<g>
</g>
<g>
</g>
<g>
</g>
<g>
</g>
<g>
</g>
</svg>
